<mxfile host="app.diagrams.net" modified="2024-03-24T19:32:41.973Z" agent="Mozilla/5.0 (Windows NT 10.0; Win64; x64) AppleWebKit/537.36 (KHTML, like Gecko) Chrome/122.0.0.0 Safari/537.36 Edg/122.0.0.0" etag="hnngytqaXpoxn4HxjWj8" version="24.1.0" type="device">
  <diagram name="Page-1" id="OVV1n6lB-cZpqa8iGqBS">
    <mxGraphModel dx="1002" dy="582" grid="1" gridSize="10" guides="1" tooltips="1" connect="1" arrows="1" fold="1" page="1" pageScale="1" pageWidth="850" pageHeight="1100" math="0" shadow="0">
      <root>
        <mxCell id="0" />
        <mxCell id="1" parent="0" />
        <mxCell id="Di4WpDr6R2zN1z2Z1NbU-1" value="Character" style="rounded=0;whiteSpace=wrap;html=1;" vertex="1" parent="1">
          <mxGeometry x="160" y="130" width="120" height="60" as="geometry" />
        </mxCell>
        <mxCell id="Di4WpDr6R2zN1z2Z1NbU-5" style="edgeStyle=orthogonalEdgeStyle;rounded=0;orthogonalLoop=1;jettySize=auto;html=1;exitX=0.5;exitY=0;exitDx=0;exitDy=0;entryX=0.5;entryY=1;entryDx=0;entryDy=0;" edge="1" parent="1" source="Di4WpDr6R2zN1z2Z1NbU-2" target="Di4WpDr6R2zN1z2Z1NbU-1">
          <mxGeometry relative="1" as="geometry" />
        </mxCell>
        <mxCell id="Di4WpDr6R2zN1z2Z1NbU-2" value="AllyHero" style="rounded=0;whiteSpace=wrap;html=1;" vertex="1" parent="1">
          <mxGeometry x="220" y="300" width="120" height="60" as="geometry" />
        </mxCell>
        <mxCell id="Di4WpDr6R2zN1z2Z1NbU-4" style="edgeStyle=orthogonalEdgeStyle;rounded=0;orthogonalLoop=1;jettySize=auto;html=1;entryX=0.5;entryY=1;entryDx=0;entryDy=0;" edge="1" parent="1" source="Di4WpDr6R2zN1z2Z1NbU-3" target="Di4WpDr6R2zN1z2Z1NbU-1">
          <mxGeometry relative="1" as="geometry" />
        </mxCell>
        <mxCell id="Di4WpDr6R2zN1z2Z1NbU-3" value="EnemyHero" style="rounded=0;whiteSpace=wrap;html=1;" vertex="1" parent="1">
          <mxGeometry x="50" y="350" width="120" height="60" as="geometry" />
        </mxCell>
        <mxCell id="Di4WpDr6R2zN1z2Z1NbU-6" value="Director" style="rounded=0;whiteSpace=wrap;html=1;" vertex="1" parent="1">
          <mxGeometry x="360" y="150" width="120" height="60" as="geometry" />
        </mxCell>
        <mxCell id="Di4WpDr6R2zN1z2Z1NbU-7" value="ICharacterBuilder" style="rounded=1;whiteSpace=wrap;html=1;" vertex="1" parent="1">
          <mxGeometry x="540" y="140" width="120" height="60" as="geometry" />
        </mxCell>
        <mxCell id="Di4WpDr6R2zN1z2Z1NbU-9" style="edgeStyle=orthogonalEdgeStyle;rounded=0;orthogonalLoop=1;jettySize=auto;html=1;entryX=0.5;entryY=1;entryDx=0;entryDy=0;" edge="1" parent="1" source="Di4WpDr6R2zN1z2Z1NbU-8" target="Di4WpDr6R2zN1z2Z1NbU-7">
          <mxGeometry relative="1" as="geometry" />
        </mxCell>
        <mxCell id="Di4WpDr6R2zN1z2Z1NbU-8" value="HeroBuilder" style="rounded=0;whiteSpace=wrap;html=1;" vertex="1" parent="1">
          <mxGeometry x="450" y="330" width="120" height="60" as="geometry" />
        </mxCell>
        <mxCell id="Di4WpDr6R2zN1z2Z1NbU-11" style="edgeStyle=orthogonalEdgeStyle;rounded=0;orthogonalLoop=1;jettySize=auto;html=1;entryX=0.5;entryY=1;entryDx=0;entryDy=0;" edge="1" parent="1" source="Di4WpDr6R2zN1z2Z1NbU-10" target="Di4WpDr6R2zN1z2Z1NbU-7">
          <mxGeometry relative="1" as="geometry" />
        </mxCell>
        <mxCell id="Di4WpDr6R2zN1z2Z1NbU-10" value="EnemyHero" style="rounded=0;whiteSpace=wrap;html=1;" vertex="1" parent="1">
          <mxGeometry x="640" y="280" width="120" height="60" as="geometry" />
        </mxCell>
      </root>
    </mxGraphModel>
  </diagram>
</mxfile>
